<mxfile host="app.diagrams.net" modified="2023-05-20T13:48:08.100Z" agent="Mozilla/5.0 (Macintosh; Intel Mac OS X 10_15_7) AppleWebKit/537.36 (KHTML, like Gecko) Chrome/113.0.0.0 Safari/537.36" version="21.3.0" etag="yfS3xqlc-antfkllb72U" type="github">
  <diagram name="Page-1" id="Dt9OIkEnnsKyyqg8xf8L">
    <mxGraphModel>
      <root>
        <mxCell id="0" />
        <mxCell id="1" parent="0" />
      </root>
    </mxGraphModel>
  </diagram>
</mxfile>
